<?xml version="1.0" encoding="utf-8" standalone="no"?>
<!DOCTYPE svg PUBLIC "-//W3C//DTD SVG 1.1//EN"
  "http://www.w3.org/Graphics/SVG/1.1/DTD/svg11.dtd">
<svg xmlns:xlink="http://www.w3.org/1999/xlink" width="329.98125pt" height="305.278125pt" viewBox="0 0 329.98125 305.278125" xmlns="http://www.w3.org/2000/svg" version="1.1">
 <metadata>
  <rdf:RDF xmlns:dc="http://purl.org/dc/elements/1.1/" xmlns:cc="http://creativecommons.org/ns#" xmlns:rdf="http://www.w3.org/1999/02/22-rdf-syntax-ns#">
   <cc:Work>
    <dc:type rdf:resource="http://purl.org/dc/dcmitype/StillImage"/>
    <dc:date>2024-09-23T12:16:55.533561</dc:date>
    <dc:format>image/svg+xml</dc:format>
    <dc:creator>
     <cc:Agent>
      <dc:title>Matplotlib v3.9.1, https://matplotlib.org/</dc:title>
     </cc:Agent>
    </dc:creator>
   </cc:Work>
  </rdf:RDF>
 </metadata>
 <defs>
  <style type="text/css">*{stroke-linejoin: round; stroke-linecap: butt}</style>
 </defs>
 <g id="figure_1">
  <g id="patch_1">
   <path d="M 0 305.278125 
L 329.98125 305.278125 
L 329.98125 0 
L 0 0 
z
" style="fill: #ffffff"/>
  </g>
  <g id="axes_1">
   <g id="patch_2">
    <path d="M 43.78125 284.4 
L 322.78125 284.4 
L 322.78125 7.2 
L 43.78125 7.2 
z
" style="fill: #ffffff"/>
   </g>
   <g id="PolyCollection_1">
    <defs>
     <path id="mcfa5f6d08e" d="M 196.870485 -33.478125 
L 169.692015 -33.478125 
L 169.167211 -36.02358 
L 169.228662 -38.569034 
L 169.767726 -41.114489 
L 170.613726 -43.659943 
L 171.58388 -46.205398 
L 172.526349 -48.750852 
L 173.344244 -51.296307 
L 173.998423 -53.841761 
L 174.494823 -56.387216 
L 174.865102 -58.93267 
L 175.148083 -61.478125 
L 175.37628 -64.02358 
L 175.568855 -66.569034 
L 175.730519 -69.114489 
L 175.854906 -71.659943 
L 175.930564 -74.205398 
L 175.947561 -76.750852 
L 175.902911 -79.296307 
L 175.803508 -81.841761 
L 175.665916 -84.387216 
L 175.513147 -86.93267 
L 175.369352 -89.478125 
L 175.253959 -92.02358 
L 175.177085 -94.569034 
L 175.137656 -97.114489 
L 175.124762 -99.659943 
L 175.121535 -102.205398 
L 175.10987 -104.750852 
L 175.074078 -107.296307 
L 175.002187 -109.841761 
L 174.884887 -112.387216 
L 174.713394 -114.93267 
L 174.478096 -117.478125 
L 174.169422 -120.02358 
L 173.781011 -122.569034 
L 173.313696 -125.114489 
L 172.77793 -127.659943 
L 172.192609 -130.205398 
L 171.579837 -132.750852 
L 170.957189 -135.296307 
L 170.330525 -137.841761 
L 169.690446 -140.387216 
L 169.014128 -142.93267 
L 168.272031 -145.478125 
L 167.437088 -148.02358 
L 166.493171 -150.569034 
L 165.440148 -153.114489 
L 164.294159 -155.659943 
L 163.083318 -158.205398 
L 161.840316 -160.750852 
L 160.594235 -163.296307 
L 159.364043 -165.841761 
L 158.155637 -168.387216 
L 156.962909 -170.93267 
L 155.771577 -173.478125 
L 154.563417 -176.02358 
L 153.318638 -178.569034 
L 152.015512 -181.114489 
L 150.628185 -183.659943 
L 149.124708 -186.205398 
L 147.4673 -188.750852 
L 145.615722 -191.296307 
L 143.533281 -193.841761 
L 141.19389 -196.387216 
L 138.588271 -198.93267 
L 135.727495 -201.478125 
L 132.64268 -204.02358 
L 129.380373 -206.569034 
L 125.993929 -209.114489 
L 122.532033 -211.659943 
L 119.026451 -214.205398 
L 115.482002 -216.750852 
L 111.872401 -219.296307 
L 108.145165 -221.841761 
L 104.236598 -224.387216 
L 100.094187 -226.93267 
L 95.699802 -229.478125 
L 91.085227 -232.02358 
L 86.333402 -234.569034 
L 81.564238 -237.114489 
L 76.91065 -239.659943 
L 72.49512 -242.205398 
L 68.417154 -244.750852 
L 64.757336 -247.296307 
L 61.59666 -249.841761 
L 59.043546 -252.387216 
L 57.258014 -254.93267 
L 56.463068 -257.478125 
L 56.936679 -260.02358 
L 58.982077 -262.569034 
L 62.878634 -265.114489 
L 68.820123 -267.659943 
L 76.851634 -270.205398 
L 86.820077 -272.750852 
L 98.354213 -275.296307 
L 110.886303 -277.841761 
L 123.717955 -280.387216 
L 136.11951 -282.93267 
L 147.440308 -285.478125 
L 219.122192 -285.478125 
L 219.122192 -285.478125 
L 230.44299 -282.93267 
L 242.844545 -280.387216 
L 255.676197 -277.841761 
L 268.208287 -275.296307 
L 279.742423 -272.750852 
L 289.710866 -270.205398 
L 297.742377 -267.659943 
L 303.683866 -265.114489 
L 307.580423 -262.569034 
L 309.625821 -260.02358 
L 310.099432 -257.478125 
L 309.304486 -254.93267 
L 307.518954 -252.387216 
L 304.96584 -249.841761 
L 301.805164 -247.296307 
L 298.145346 -244.750852 
L 294.06738 -242.205398 
L 289.65185 -239.659943 
L 284.998262 -237.114489 
L 280.229098 -234.569034 
L 275.477273 -232.02358 
L 270.862698 -229.478125 
L 266.468313 -226.93267 
L 262.325902 -224.387216 
L 258.417335 -221.841761 
L 254.690099 -219.296307 
L 251.080498 -216.750852 
L 247.536049 -214.205398 
L 244.030467 -211.659943 
L 240.568571 -209.114489 
L 237.182127 -206.569034 
L 233.91982 -204.02358 
L 230.835005 -201.478125 
L 227.974229 -198.93267 
L 225.36861 -196.387216 
L 223.029219 -193.841761 
L 220.946778 -191.296307 
L 219.0952 -188.750852 
L 217.437792 -186.205398 
L 215.934315 -183.659943 
L 214.546988 -181.114489 
L 213.243862 -178.569034 
L 211.999083 -176.02358 
L 210.790923 -173.478125 
L 209.599591 -170.93267 
L 208.406863 -168.387216 
L 207.198457 -165.841761 
L 205.968265 -163.296307 
L 204.722184 -160.750852 
L 203.479182 -158.205398 
L 202.268341 -155.659943 
L 201.122352 -153.114489 
L 200.069329 -150.569034 
L 199.125412 -148.02358 
L 198.290469 -145.478125 
L 197.548372 -142.93267 
L 196.872054 -140.387216 
L 196.231975 -137.841761 
L 195.605311 -135.296307 
L 194.982663 -132.750852 
L 194.369891 -130.205398 
L 193.78457 -127.659943 
L 193.248804 -125.114489 
L 192.781489 -122.569034 
L 192.393078 -120.02358 
L 192.084404 -117.478125 
L 191.849106 -114.93267 
L 191.677613 -112.387216 
L 191.560313 -109.841761 
L 191.488422 -107.296307 
L 191.45263 -104.750852 
L 191.440965 -102.205398 
L 191.437738 -99.659943 
L 191.424844 -97.114489 
L 191.385415 -94.569034 
L 191.308541 -92.02358 
L 191.193148 -89.478125 
L 191.049353 -86.93267 
L 190.896584 -84.387216 
L 190.758992 -81.841761 
L 190.659589 -79.296307 
L 190.614939 -76.750852 
L 190.631936 -74.205398 
L 190.707594 -71.659943 
L 190.831981 -69.114489 
L 190.993645 -66.569034 
L 191.18622 -64.02358 
L 191.414417 -61.478125 
L 191.697398 -58.93267 
L 192.067677 -56.387216 
L 192.564077 -53.841761 
L 193.218256 -51.296307 
L 194.036151 -48.750852 
L 194.97862 -46.205398 
L 195.948774 -43.659943 
L 196.794774 -41.114489 
L 197.333838 -38.569034 
L 197.395289 -36.02358 
L 196.870485 -33.478125 
z
" style="stroke: #00008b; stroke-opacity: 0.4"/>
    </defs>
    <g clip-path="url(#pf62a778ba4)">
     <use xlink:href="#mcfa5f6d08e" x="0" y="305.278125" style="fill: #6495ed; fill-opacity: 0.4; stroke: #00008b; stroke-opacity: 0.4"/>
    </g>
   </g>
   <g id="matplotlib.axis_1">
    <g id="text_1">
     <!-- Est. FoC Prob. Density Distribution -->
     <g transform="translate(97.496094 295.998438) scale(0.1 -0.1)">
      <defs>
       <path id="DejaVuSans-45" d="M 628 4666 
L 3578 4666 
L 3578 4134 
L 1259 4134 
L 1259 2753 
L 3481 2753 
L 3481 2222 
L 1259 2222 
L 1259 531 
L 3634 531 
L 3634 0 
L 628 0 
L 628 4666 
z
" transform="scale(0.015625)"/>
       <path id="DejaVuSans-73" d="M 2834 3397 
L 2834 2853 
Q 2591 2978 2328 3040 
Q 2066 3103 1784 3103 
Q 1356 3103 1142 2972 
Q 928 2841 928 2578 
Q 928 2378 1081 2264 
Q 1234 2150 1697 2047 
L 1894 2003 
Q 2506 1872 2764 1633 
Q 3022 1394 3022 966 
Q 3022 478 2636 193 
Q 2250 -91 1575 -91 
Q 1294 -91 989 -36 
Q 684 19 347 128 
L 347 722 
Q 666 556 975 473 
Q 1284 391 1588 391 
Q 1994 391 2212 530 
Q 2431 669 2431 922 
Q 2431 1156 2273 1281 
Q 2116 1406 1581 1522 
L 1381 1569 
Q 847 1681 609 1914 
Q 372 2147 372 2553 
Q 372 3047 722 3315 
Q 1072 3584 1716 3584 
Q 2034 3584 2315 3537 
Q 2597 3491 2834 3397 
z
" transform="scale(0.015625)"/>
       <path id="DejaVuSans-74" d="M 1172 4494 
L 1172 3500 
L 2356 3500 
L 2356 3053 
L 1172 3053 
L 1172 1153 
Q 1172 725 1289 603 
Q 1406 481 1766 481 
L 2356 481 
L 2356 0 
L 1766 0 
Q 1100 0 847 248 
Q 594 497 594 1153 
L 594 3053 
L 172 3053 
L 172 3500 
L 594 3500 
L 594 4494 
L 1172 4494 
z
" transform="scale(0.015625)"/>
       <path id="DejaVuSans-2e" d="M 684 794 
L 1344 794 
L 1344 0 
L 684 0 
L 684 794 
z
" transform="scale(0.015625)"/>
       <path id="DejaVuSans-20" transform="scale(0.015625)"/>
       <path id="DejaVuSans-46" d="M 628 4666 
L 3309 4666 
L 3309 4134 
L 1259 4134 
L 1259 2759 
L 3109 2759 
L 3109 2228 
L 1259 2228 
L 1259 0 
L 628 0 
L 628 4666 
z
" transform="scale(0.015625)"/>
       <path id="DejaVuSans-6f" d="M 1959 3097 
Q 1497 3097 1228 2736 
Q 959 2375 959 1747 
Q 959 1119 1226 758 
Q 1494 397 1959 397 
Q 2419 397 2687 759 
Q 2956 1122 2956 1747 
Q 2956 2369 2687 2733 
Q 2419 3097 1959 3097 
z
M 1959 3584 
Q 2709 3584 3137 3096 
Q 3566 2609 3566 1747 
Q 3566 888 3137 398 
Q 2709 -91 1959 -91 
Q 1206 -91 779 398 
Q 353 888 353 1747 
Q 353 2609 779 3096 
Q 1206 3584 1959 3584 
z
" transform="scale(0.015625)"/>
       <path id="DejaVuSans-43" d="M 4122 4306 
L 4122 3641 
Q 3803 3938 3442 4084 
Q 3081 4231 2675 4231 
Q 1875 4231 1450 3742 
Q 1025 3253 1025 2328 
Q 1025 1406 1450 917 
Q 1875 428 2675 428 
Q 3081 428 3442 575 
Q 3803 722 4122 1019 
L 4122 359 
Q 3791 134 3420 21 
Q 3050 -91 2638 -91 
Q 1578 -91 968 557 
Q 359 1206 359 2328 
Q 359 3453 968 4101 
Q 1578 4750 2638 4750 
Q 3056 4750 3426 4639 
Q 3797 4528 4122 4306 
z
" transform="scale(0.015625)"/>
       <path id="DejaVuSans-50" d="M 1259 4147 
L 1259 2394 
L 2053 2394 
Q 2494 2394 2734 2622 
Q 2975 2850 2975 3272 
Q 2975 3691 2734 3919 
Q 2494 4147 2053 4147 
L 1259 4147 
z
M 628 4666 
L 2053 4666 
Q 2838 4666 3239 4311 
Q 3641 3956 3641 3272 
Q 3641 2581 3239 2228 
Q 2838 1875 2053 1875 
L 1259 1875 
L 1259 0 
L 628 0 
L 628 4666 
z
" transform="scale(0.015625)"/>
       <path id="DejaVuSans-72" d="M 2631 2963 
Q 2534 3019 2420 3045 
Q 2306 3072 2169 3072 
Q 1681 3072 1420 2755 
Q 1159 2438 1159 1844 
L 1159 0 
L 581 0 
L 581 3500 
L 1159 3500 
L 1159 2956 
Q 1341 3275 1631 3429 
Q 1922 3584 2338 3584 
Q 2397 3584 2469 3576 
Q 2541 3569 2628 3553 
L 2631 2963 
z
" transform="scale(0.015625)"/>
       <path id="DejaVuSans-62" d="M 3116 1747 
Q 3116 2381 2855 2742 
Q 2594 3103 2138 3103 
Q 1681 3103 1420 2742 
Q 1159 2381 1159 1747 
Q 1159 1113 1420 752 
Q 1681 391 2138 391 
Q 2594 391 2855 752 
Q 3116 1113 3116 1747 
z
M 1159 2969 
Q 1341 3281 1617 3432 
Q 1894 3584 2278 3584 
Q 2916 3584 3314 3078 
Q 3713 2572 3713 1747 
Q 3713 922 3314 415 
Q 2916 -91 2278 -91 
Q 1894 -91 1617 61 
Q 1341 213 1159 525 
L 1159 0 
L 581 0 
L 581 4863 
L 1159 4863 
L 1159 2969 
z
" transform="scale(0.015625)"/>
       <path id="DejaVuSans-44" d="M 1259 4147 
L 1259 519 
L 2022 519 
Q 2988 519 3436 956 
Q 3884 1394 3884 2338 
Q 3884 3275 3436 3711 
Q 2988 4147 2022 4147 
L 1259 4147 
z
M 628 4666 
L 1925 4666 
Q 3281 4666 3915 4102 
Q 4550 3538 4550 2338 
Q 4550 1131 3912 565 
Q 3275 0 1925 0 
L 628 0 
L 628 4666 
z
" transform="scale(0.015625)"/>
       <path id="DejaVuSans-65" d="M 3597 1894 
L 3597 1613 
L 953 1613 
Q 991 1019 1311 708 
Q 1631 397 2203 397 
Q 2534 397 2845 478 
Q 3156 559 3463 722 
L 3463 178 
Q 3153 47 2828 -22 
Q 2503 -91 2169 -91 
Q 1331 -91 842 396 
Q 353 884 353 1716 
Q 353 2575 817 3079 
Q 1281 3584 2069 3584 
Q 2775 3584 3186 3129 
Q 3597 2675 3597 1894 
z
M 3022 2063 
Q 3016 2534 2758 2815 
Q 2500 3097 2075 3097 
Q 1594 3097 1305 2825 
Q 1016 2553 972 2059 
L 3022 2063 
z
" transform="scale(0.015625)"/>
       <path id="DejaVuSans-6e" d="M 3513 2113 
L 3513 0 
L 2938 0 
L 2938 2094 
Q 2938 2591 2744 2837 
Q 2550 3084 2163 3084 
Q 1697 3084 1428 2787 
Q 1159 2491 1159 1978 
L 1159 0 
L 581 0 
L 581 3500 
L 1159 3500 
L 1159 2956 
Q 1366 3272 1645 3428 
Q 1925 3584 2291 3584 
Q 2894 3584 3203 3211 
Q 3513 2838 3513 2113 
z
" transform="scale(0.015625)"/>
       <path id="DejaVuSans-69" d="M 603 3500 
L 1178 3500 
L 1178 0 
L 603 0 
L 603 3500 
z
M 603 4863 
L 1178 4863 
L 1178 4134 
L 603 4134 
L 603 4863 
z
" transform="scale(0.015625)"/>
       <path id="DejaVuSans-79" d="M 2059 -325 
Q 1816 -950 1584 -1140 
Q 1353 -1331 966 -1331 
L 506 -1331 
L 506 -850 
L 844 -850 
Q 1081 -850 1212 -737 
Q 1344 -625 1503 -206 
L 1606 56 
L 191 3500 
L 800 3500 
L 1894 763 
L 2988 3500 
L 3597 3500 
L 2059 -325 
z
" transform="scale(0.015625)"/>
       <path id="DejaVuSans-75" d="M 544 1381 
L 544 3500 
L 1119 3500 
L 1119 1403 
Q 1119 906 1312 657 
Q 1506 409 1894 409 
Q 2359 409 2629 706 
Q 2900 1003 2900 1516 
L 2900 3500 
L 3475 3500 
L 3475 0 
L 2900 0 
L 2900 538 
Q 2691 219 2414 64 
Q 2138 -91 1772 -91 
Q 1169 -91 856 284 
Q 544 659 544 1381 
z
M 1991 3584 
L 1991 3584 
z
" transform="scale(0.015625)"/>
      </defs>
      <use xlink:href="#DejaVuSans-45"/>
      <use xlink:href="#DejaVuSans-73" x="63.183594"/>
      <use xlink:href="#DejaVuSans-74" x="115.283203"/>
      <use xlink:href="#DejaVuSans-2e" x="154.492188"/>
      <use xlink:href="#DejaVuSans-20" x="186.279297"/>
      <use xlink:href="#DejaVuSans-46" x="218.066406"/>
      <use xlink:href="#DejaVuSans-6f" x="271.960938"/>
      <use xlink:href="#DejaVuSans-43" x="333.142578"/>
      <use xlink:href="#DejaVuSans-20" x="402.966797"/>
      <use xlink:href="#DejaVuSans-50" x="434.753906"/>
      <use xlink:href="#DejaVuSans-72" x="493.306641"/>
      <use xlink:href="#DejaVuSans-6f" x="532.169922"/>
      <use xlink:href="#DejaVuSans-62" x="593.351562"/>
      <use xlink:href="#DejaVuSans-2e" x="656.828125"/>
      <use xlink:href="#DejaVuSans-20" x="688.615234"/>
      <use xlink:href="#DejaVuSans-44" x="720.402344"/>
      <use xlink:href="#DejaVuSans-65" x="797.404297"/>
      <use xlink:href="#DejaVuSans-6e" x="858.927734"/>
      <use xlink:href="#DejaVuSans-73" x="922.306641"/>
      <use xlink:href="#DejaVuSans-69" x="974.40625"/>
      <use xlink:href="#DejaVuSans-74" x="1002.189453"/>
      <use xlink:href="#DejaVuSans-79" x="1041.398438"/>
      <use xlink:href="#DejaVuSans-20" x="1100.578125"/>
      <use xlink:href="#DejaVuSans-44" x="1132.365234"/>
      <use xlink:href="#DejaVuSans-69" x="1209.367188"/>
      <use xlink:href="#DejaVuSans-73" x="1237.150391"/>
      <use xlink:href="#DejaVuSans-74" x="1289.25"/>
      <use xlink:href="#DejaVuSans-72" x="1328.458984"/>
      <use xlink:href="#DejaVuSans-69" x="1369.572266"/>
      <use xlink:href="#DejaVuSans-62" x="1397.355469"/>
      <use xlink:href="#DejaVuSans-75" x="1460.832031"/>
      <use xlink:href="#DejaVuSans-74" x="1524.210938"/>
      <use xlink:href="#DejaVuSans-69" x="1563.419922"/>
      <use xlink:href="#DejaVuSans-6f" x="1591.203125"/>
      <use xlink:href="#DejaVuSans-6e" x="1652.384766"/>
     </g>
    </g>
   </g>
   <g id="matplotlib.axis_2">
    <g id="ytick_1">
     <g id="line2d_1">
      <defs>
       <path id="m0fd6d33ea6" d="M 0 0 
L -3.5 0 
" style="stroke: #000000; stroke-width: 0.8"/>
      </defs>
      <g>
       <use xlink:href="#m0fd6d33ea6" x="43.78125" y="271.8" style="stroke: #000000; stroke-width: 0.8"/>
      </g>
     </g>
     <g id="text_2">
      <!-- 0.0 -->
      <g transform="translate(20.878125 275.599219) scale(0.1 -0.1)">
       <defs>
        <path id="DejaVuSans-30" d="M 2034 4250 
Q 1547 4250 1301 3770 
Q 1056 3291 1056 2328 
Q 1056 1369 1301 889 
Q 1547 409 2034 409 
Q 2525 409 2770 889 
Q 3016 1369 3016 2328 
Q 3016 3291 2770 3770 
Q 2525 4250 2034 4250 
z
M 2034 4750 
Q 2819 4750 3233 4129 
Q 3647 3509 3647 2328 
Q 3647 1150 3233 529 
Q 2819 -91 2034 -91 
Q 1250 -91 836 529 
Q 422 1150 422 2328 
Q 422 3509 836 4129 
Q 1250 4750 2034 4750 
z
" transform="scale(0.015625)"/>
       </defs>
       <use xlink:href="#DejaVuSans-30"/>
       <use xlink:href="#DejaVuSans-2e" x="63.623047"/>
       <use xlink:href="#DejaVuSans-30" x="95.410156"/>
      </g>
     </g>
    </g>
    <g id="ytick_2">
     <g id="line2d_2">
      <g>
       <use xlink:href="#m0fd6d33ea6" x="43.78125" y="221.261157" style="stroke: #000000; stroke-width: 0.8"/>
      </g>
     </g>
     <g id="text_3">
      <!-- 0.2 -->
      <g transform="translate(20.878125 225.060376) scale(0.1 -0.1)">
       <defs>
        <path id="DejaVuSans-32" d="M 1228 531 
L 3431 531 
L 3431 0 
L 469 0 
L 469 531 
Q 828 903 1448 1529 
Q 2069 2156 2228 2338 
Q 2531 2678 2651 2914 
Q 2772 3150 2772 3378 
Q 2772 3750 2511 3984 
Q 2250 4219 1831 4219 
Q 1534 4219 1204 4116 
Q 875 4013 500 3803 
L 500 4441 
Q 881 4594 1212 4672 
Q 1544 4750 1819 4750 
Q 2544 4750 2975 4387 
Q 3406 4025 3406 3419 
Q 3406 3131 3298 2873 
Q 3191 2616 2906 2266 
Q 2828 2175 2409 1742 
Q 1991 1309 1228 531 
z
" transform="scale(0.015625)"/>
       </defs>
       <use xlink:href="#DejaVuSans-30"/>
       <use xlink:href="#DejaVuSans-2e" x="63.623047"/>
       <use xlink:href="#DejaVuSans-32" x="95.410156"/>
      </g>
     </g>
    </g>
    <g id="ytick_3">
     <g id="line2d_3">
      <g>
       <use xlink:href="#m0fd6d33ea6" x="43.78125" y="170.722314" style="stroke: #000000; stroke-width: 0.8"/>
      </g>
     </g>
     <g id="text_4">
      <!-- 0.4 -->
      <g transform="translate(20.878125 174.521533) scale(0.1 -0.1)">
       <defs>
        <path id="DejaVuSans-34" d="M 2419 4116 
L 825 1625 
L 2419 1625 
L 2419 4116 
z
M 2253 4666 
L 3047 4666 
L 3047 1625 
L 3713 1625 
L 3713 1100 
L 3047 1100 
L 3047 0 
L 2419 0 
L 2419 1100 
L 313 1100 
L 313 1709 
L 2253 4666 
z
" transform="scale(0.015625)"/>
       </defs>
       <use xlink:href="#DejaVuSans-30"/>
       <use xlink:href="#DejaVuSans-2e" x="63.623047"/>
       <use xlink:href="#DejaVuSans-34" x="95.410156"/>
      </g>
     </g>
    </g>
    <g id="ytick_4">
     <g id="line2d_4">
      <g>
       <use xlink:href="#m0fd6d33ea6" x="43.78125" y="120.183471" style="stroke: #000000; stroke-width: 0.8"/>
      </g>
     </g>
     <g id="text_5">
      <!-- 0.6 -->
      <g transform="translate(20.878125 123.98269) scale(0.1 -0.1)">
       <defs>
        <path id="DejaVuSans-36" d="M 2113 2584 
Q 1688 2584 1439 2293 
Q 1191 2003 1191 1497 
Q 1191 994 1439 701 
Q 1688 409 2113 409 
Q 2538 409 2786 701 
Q 3034 994 3034 1497 
Q 3034 2003 2786 2293 
Q 2538 2584 2113 2584 
z
M 3366 4563 
L 3366 3988 
Q 3128 4100 2886 4159 
Q 2644 4219 2406 4219 
Q 1781 4219 1451 3797 
Q 1122 3375 1075 2522 
Q 1259 2794 1537 2939 
Q 1816 3084 2150 3084 
Q 2853 3084 3261 2657 
Q 3669 2231 3669 1497 
Q 3669 778 3244 343 
Q 2819 -91 2113 -91 
Q 1303 -91 875 529 
Q 447 1150 447 2328 
Q 447 3434 972 4092 
Q 1497 4750 2381 4750 
Q 2619 4750 2861 4703 
Q 3103 4656 3366 4563 
z
" transform="scale(0.015625)"/>
       </defs>
       <use xlink:href="#DejaVuSans-30"/>
       <use xlink:href="#DejaVuSans-2e" x="63.623047"/>
       <use xlink:href="#DejaVuSans-36" x="95.410156"/>
      </g>
     </g>
    </g>
    <g id="ytick_5">
     <g id="line2d_5">
      <g>
       <use xlink:href="#m0fd6d33ea6" x="43.78125" y="69.644628" style="stroke: #000000; stroke-width: 0.8"/>
      </g>
     </g>
     <g id="text_6">
      <!-- 0.8 -->
      <g transform="translate(20.878125 73.443847) scale(0.1 -0.1)">
       <defs>
        <path id="DejaVuSans-38" d="M 2034 2216 
Q 1584 2216 1326 1975 
Q 1069 1734 1069 1313 
Q 1069 891 1326 650 
Q 1584 409 2034 409 
Q 2484 409 2743 651 
Q 3003 894 3003 1313 
Q 3003 1734 2745 1975 
Q 2488 2216 2034 2216 
z
M 1403 2484 
Q 997 2584 770 2862 
Q 544 3141 544 3541 
Q 544 4100 942 4425 
Q 1341 4750 2034 4750 
Q 2731 4750 3128 4425 
Q 3525 4100 3525 3541 
Q 3525 3141 3298 2862 
Q 3072 2584 2669 2484 
Q 3125 2378 3379 2068 
Q 3634 1759 3634 1313 
Q 3634 634 3220 271 
Q 2806 -91 2034 -91 
Q 1263 -91 848 271 
Q 434 634 434 1313 
Q 434 1759 690 2068 
Q 947 2378 1403 2484 
z
M 1172 3481 
Q 1172 3119 1398 2916 
Q 1625 2713 2034 2713 
Q 2441 2713 2670 2916 
Q 2900 3119 2900 3481 
Q 2900 3844 2670 4047 
Q 2441 4250 2034 4250 
Q 1625 4250 1398 4047 
Q 1172 3844 1172 3481 
z
" transform="scale(0.015625)"/>
       </defs>
       <use xlink:href="#DejaVuSans-30"/>
       <use xlink:href="#DejaVuSans-2e" x="63.623047"/>
       <use xlink:href="#DejaVuSans-38" x="95.410156"/>
      </g>
     </g>
    </g>
    <g id="ytick_6">
     <g id="line2d_6">
      <g>
       <use xlink:href="#m0fd6d33ea6" x="43.78125" y="19.105785" style="stroke: #000000; stroke-width: 0.8"/>
      </g>
     </g>
     <g id="text_7">
      <!-- 1.0 -->
      <g transform="translate(20.878125 22.905004) scale(0.1 -0.1)">
       <defs>
        <path id="DejaVuSans-31" d="M 794 531 
L 1825 531 
L 1825 4091 
L 703 3866 
L 703 4441 
L 1819 4666 
L 2450 4666 
L 2450 531 
L 3481 531 
L 3481 0 
L 794 0 
L 794 531 
z
" transform="scale(0.015625)"/>
       </defs>
       <use xlink:href="#DejaVuSans-31"/>
       <use xlink:href="#DejaVuSans-2e" x="63.623047"/>
       <use xlink:href="#DejaVuSans-30" x="95.410156"/>
      </g>
     </g>
    </g>
    <g id="text_8">
     <!-- Percentage of FoC from Total Tokens -->
     <g transform="translate(14.798437 236.069531) rotate(-90) scale(0.1 -0.1)">
      <defs>
       <path id="DejaVuSans-63" d="M 3122 3366 
L 3122 2828 
Q 2878 2963 2633 3030 
Q 2388 3097 2138 3097 
Q 1578 3097 1268 2742 
Q 959 2388 959 1747 
Q 959 1106 1268 751 
Q 1578 397 2138 397 
Q 2388 397 2633 464 
Q 2878 531 3122 666 
L 3122 134 
Q 2881 22 2623 -34 
Q 2366 -91 2075 -91 
Q 1284 -91 818 406 
Q 353 903 353 1747 
Q 353 2603 823 3093 
Q 1294 3584 2113 3584 
Q 2378 3584 2631 3529 
Q 2884 3475 3122 3366 
z
" transform="scale(0.015625)"/>
       <path id="DejaVuSans-61" d="M 2194 1759 
Q 1497 1759 1228 1600 
Q 959 1441 959 1056 
Q 959 750 1161 570 
Q 1363 391 1709 391 
Q 2188 391 2477 730 
Q 2766 1069 2766 1631 
L 2766 1759 
L 2194 1759 
z
M 3341 1997 
L 3341 0 
L 2766 0 
L 2766 531 
Q 2569 213 2275 61 
Q 1981 -91 1556 -91 
Q 1019 -91 701 211 
Q 384 513 384 1019 
Q 384 1609 779 1909 
Q 1175 2209 1959 2209 
L 2766 2209 
L 2766 2266 
Q 2766 2663 2505 2880 
Q 2244 3097 1772 3097 
Q 1472 3097 1187 3025 
Q 903 2953 641 2809 
L 641 3341 
Q 956 3463 1253 3523 
Q 1550 3584 1831 3584 
Q 2591 3584 2966 3190 
Q 3341 2797 3341 1997 
z
" transform="scale(0.015625)"/>
       <path id="DejaVuSans-67" d="M 2906 1791 
Q 2906 2416 2648 2759 
Q 2391 3103 1925 3103 
Q 1463 3103 1205 2759 
Q 947 2416 947 1791 
Q 947 1169 1205 825 
Q 1463 481 1925 481 
Q 2391 481 2648 825 
Q 2906 1169 2906 1791 
z
M 3481 434 
Q 3481 -459 3084 -895 
Q 2688 -1331 1869 -1331 
Q 1566 -1331 1297 -1286 
Q 1028 -1241 775 -1147 
L 775 -588 
Q 1028 -725 1275 -790 
Q 1522 -856 1778 -856 
Q 2344 -856 2625 -561 
Q 2906 -266 2906 331 
L 2906 616 
Q 2728 306 2450 153 
Q 2172 0 1784 0 
Q 1141 0 747 490 
Q 353 981 353 1791 
Q 353 2603 747 3093 
Q 1141 3584 1784 3584 
Q 2172 3584 2450 3431 
Q 2728 3278 2906 2969 
L 2906 3500 
L 3481 3500 
L 3481 434 
z
" transform="scale(0.015625)"/>
       <path id="DejaVuSans-66" d="M 2375 4863 
L 2375 4384 
L 1825 4384 
Q 1516 4384 1395 4259 
Q 1275 4134 1275 3809 
L 1275 3500 
L 2222 3500 
L 2222 3053 
L 1275 3053 
L 1275 0 
L 697 0 
L 697 3053 
L 147 3053 
L 147 3500 
L 697 3500 
L 697 3744 
Q 697 4328 969 4595 
Q 1241 4863 1831 4863 
L 2375 4863 
z
" transform="scale(0.015625)"/>
       <path id="DejaVuSans-6d" d="M 3328 2828 
Q 3544 3216 3844 3400 
Q 4144 3584 4550 3584 
Q 5097 3584 5394 3201 
Q 5691 2819 5691 2113 
L 5691 0 
L 5113 0 
L 5113 2094 
Q 5113 2597 4934 2840 
Q 4756 3084 4391 3084 
Q 3944 3084 3684 2787 
Q 3425 2491 3425 1978 
L 3425 0 
L 2847 0 
L 2847 2094 
Q 2847 2600 2669 2842 
Q 2491 3084 2119 3084 
Q 1678 3084 1418 2786 
Q 1159 2488 1159 1978 
L 1159 0 
L 581 0 
L 581 3500 
L 1159 3500 
L 1159 2956 
Q 1356 3278 1631 3431 
Q 1906 3584 2284 3584 
Q 2666 3584 2933 3390 
Q 3200 3197 3328 2828 
z
" transform="scale(0.015625)"/>
       <path id="DejaVuSans-54" d="M -19 4666 
L 3928 4666 
L 3928 4134 
L 2272 4134 
L 2272 0 
L 1638 0 
L 1638 4134 
L -19 4134 
L -19 4666 
z
" transform="scale(0.015625)"/>
       <path id="DejaVuSans-6c" d="M 603 4863 
L 1178 4863 
L 1178 0 
L 603 0 
L 603 4863 
z
" transform="scale(0.015625)"/>
       <path id="DejaVuSans-6b" d="M 581 4863 
L 1159 4863 
L 1159 1991 
L 2875 3500 
L 3609 3500 
L 1753 1863 
L 3688 0 
L 2938 0 
L 1159 1709 
L 1159 0 
L 581 0 
L 581 4863 
z
" transform="scale(0.015625)"/>
      </defs>
      <use xlink:href="#DejaVuSans-50"/>
      <use xlink:href="#DejaVuSans-65" x="56.677734"/>
      <use xlink:href="#DejaVuSans-72" x="118.201172"/>
      <use xlink:href="#DejaVuSans-63" x="157.064453"/>
      <use xlink:href="#DejaVuSans-65" x="212.044922"/>
      <use xlink:href="#DejaVuSans-6e" x="273.568359"/>
      <use xlink:href="#DejaVuSans-74" x="336.947266"/>
      <use xlink:href="#DejaVuSans-61" x="376.15625"/>
      <use xlink:href="#DejaVuSans-67" x="437.435547"/>
      <use xlink:href="#DejaVuSans-65" x="500.912109"/>
      <use xlink:href="#DejaVuSans-20" x="562.435547"/>
      <use xlink:href="#DejaVuSans-6f" x="594.222656"/>
      <use xlink:href="#DejaVuSans-66" x="655.404297"/>
      <use xlink:href="#DejaVuSans-20" x="690.609375"/>
      <use xlink:href="#DejaVuSans-46" x="722.396484"/>
      <use xlink:href="#DejaVuSans-6f" x="776.291016"/>
      <use xlink:href="#DejaVuSans-43" x="837.472656"/>
      <use xlink:href="#DejaVuSans-20" x="907.296875"/>
      <use xlink:href="#DejaVuSans-66" x="939.083984"/>
      <use xlink:href="#DejaVuSans-72" x="974.289062"/>
      <use xlink:href="#DejaVuSans-6f" x="1013.152344"/>
      <use xlink:href="#DejaVuSans-6d" x="1074.333984"/>
      <use xlink:href="#DejaVuSans-20" x="1171.746094"/>
      <use xlink:href="#DejaVuSans-54" x="1203.533203"/>
      <use xlink:href="#DejaVuSans-6f" x="1247.617188"/>
      <use xlink:href="#DejaVuSans-74" x="1308.798828"/>
      <use xlink:href="#DejaVuSans-61" x="1348.007812"/>
      <use xlink:href="#DejaVuSans-6c" x="1409.287109"/>
      <use xlink:href="#DejaVuSans-20" x="1437.070312"/>
      <use xlink:href="#DejaVuSans-54" x="1468.857422"/>
      <use xlink:href="#DejaVuSans-6f" x="1512.941406"/>
      <use xlink:href="#DejaVuSans-6b" x="1574.123047"/>
      <use xlink:href="#DejaVuSans-65" x="1628.408203"/>
      <use xlink:href="#DejaVuSans-6e" x="1689.931641"/>
      <use xlink:href="#DejaVuSans-73" x="1753.310547"/>
     </g>
    </g>
   </g>
   <g id="LineCollection_1">
    <path d="M 119.872159 87.238184 
L 246.690341 87.238184 
" clip-path="url(#pf62a778ba4)" style="fill: none; stroke: #1f77b4; stroke-width: 1.5"/>
   </g>
   <g id="LineCollection_2">
    <path d="M 119.872159 19.8 
L 246.690341 19.8 
" clip-path="url(#pf62a778ba4)" style="fill: none; stroke: #1f77b4; stroke-width: 1.5"/>
   </g>
   <g id="LineCollection_3">
    <path d="M 119.872159 271.8 
L 246.690341 271.8 
" clip-path="url(#pf62a778ba4)" style="fill: none; stroke: #1f77b4; stroke-width: 1.5"/>
   </g>
   <g id="LineCollection_4">
    <path d="M 183.28125 271.8 
L 183.28125 19.8 
" clip-path="url(#pf62a778ba4)" style="fill: none; stroke: #1f77b4; stroke-width: 1.5"/>
   </g>
   <g id="patch_3">
    <path d="M 43.78125 284.4 
L 43.78125 7.2 
" style="fill: none; stroke: #000000; stroke-width: 0.8; stroke-linejoin: miter; stroke-linecap: square"/>
   </g>
   <g id="patch_4">
    <path d="M 322.78125 284.4 
L 322.78125 7.2 
" style="fill: none; stroke: #000000; stroke-width: 0.8; stroke-linejoin: miter; stroke-linecap: square"/>
   </g>
   <g id="patch_5">
    <path d="M 43.78125 284.4 
L 322.78125 284.4 
" style="fill: none; stroke: #000000; stroke-width: 0.8; stroke-linejoin: miter; stroke-linecap: square"/>
   </g>
   <g id="patch_6">
    <path d="M 43.78125 7.2 
L 322.78125 7.2 
" style="fill: none; stroke: #000000; stroke-width: 0.8; stroke-linejoin: miter; stroke-linecap: square"/>
   </g>
  </g>
 </g>
 <defs>
  <clipPath id="pf62a778ba4">
   <rect x="43.78125" y="7.2" width="279" height="277.2"/>
  </clipPath>
 </defs>
</svg>
