<?xml version="1.0" encoding="utf-8" standalone="no"?>
<!DOCTYPE svg PUBLIC "-//W3C//DTD SVG 1.1//EN"
  "http://www.w3.org/Graphics/SVG/1.1/DTD/svg11.dtd">
<svg xmlns:xlink="http://www.w3.org/1999/xlink" width="408.576563pt" height="337.074375pt" viewBox="0 0 408.576563 337.074375" xmlns="http://www.w3.org/2000/svg" version="1.1">
 <metadata>
  <rdf:RDF xmlns:dc="http://purl.org/dc/elements/1.1/" xmlns:cc="http://creativecommons.org/ns#" xmlns:rdf="http://www.w3.org/1999/02/22-rdf-syntax-ns#">
   <cc:Work>
    <dc:type rdf:resource="http://purl.org/dc/dcmitype/StillImage"/>
    <dc:date>2024-09-23T12:22:30.421908</dc:date>
    <dc:format>image/svg+xml</dc:format>
    <dc:creator>
     <cc:Agent>
      <dc:title>Matplotlib v3.9.1, https://matplotlib.org/</dc:title>
     </cc:Agent>
    </dc:creator>
   </cc:Work>
  </rdf:RDF>
 </metadata>
 <defs>
  <style type="text/css">*{stroke-linejoin: round; stroke-linecap: butt}</style>
 </defs>
 <g id="figure_1">
  <g id="patch_1">
   <path d="M 0 337.074375 
L 408.576563 337.074375 
L 408.576563 0 
L 0 0 
z
" style="fill: #ffffff"/>
  </g>
  <g id="axes_1">
   <g id="patch_2">
    <path d="M 122.376563 299.518125 
L 401.376562 299.518125 
L 401.376562 22.318125 
L 122.376563 22.318125 
z
" style="fill: #ffffff"/>
   </g>
   <g id="patch_3">
    <path d="M 122.376563 286.918125 
L 388.090848 286.918125 
L 388.090848 266.346696 
L 122.376563 266.346696 
z
" clip-path="url(#p24ebc23557)" style="fill: #6495ed"/>
   </g>
   <g id="patch_4">
    <path d="M 122.376563 261.203839 
L 254.200602 261.203839 
L 254.200602 240.632411 
L 122.376563 240.632411 
z
" clip-path="url(#p24ebc23557)" style="fill: #6495ed"/>
   </g>
   <g id="patch_5">
    <path d="M 122.376563 235.489554 
L 196.346791 235.489554 
L 196.346791 214.918125 
L 122.376563 214.918125 
z
" clip-path="url(#p24ebc23557)" style="fill: #6495ed"/>
   </g>
   <g id="patch_6">
    <path d="M 122.376563 209.775268 
L 162.460988 209.775268 
L 162.460988 189.203839 
L 122.376563 189.203839 
z
" clip-path="url(#p24ebc23557)" style="fill: #6495ed"/>
   </g>
   <g id="patch_7">
    <path d="M 122.376563 184.060982 
L 160.601401 184.060982 
L 160.601401 163.489554 
L 122.376563 163.489554 
z
" clip-path="url(#p24ebc23557)" style="fill: #6495ed"/>
   </g>
   <g id="patch_8">
    <path d="M 122.376563 158.346696 
L 159.981539 158.346696 
L 159.981539 137.775268 
L 122.376563 137.775268 
z
" clip-path="url(#p24ebc23557)" style="fill: #6495ed"/>
   </g>
   <g id="patch_9">
    <path d="M 122.376563 132.632411 
L 156.882228 132.632411 
L 156.882228 112.060982 
L 122.376563 112.060982 
z
" clip-path="url(#p24ebc23557)" style="fill: #6495ed"/>
   </g>
   <g id="patch_10">
    <path d="M 122.376563 106.918125 
L 155.849124 106.918125 
L 155.849124 86.346696 
L 122.376563 86.346696 
z
" clip-path="url(#p24ebc23557)" style="fill: #6495ed"/>
   </g>
   <g id="patch_11">
    <path d="M 122.376563 81.203839 
L 155.229262 81.203839 
L 155.229262 60.632411 
L 122.376563 60.632411 
z
" clip-path="url(#p24ebc23557)" style="fill: #6495ed"/>
   </g>
   <g id="patch_12">
    <path d="M 122.376563 55.489554 
L 154.6094 55.489554 
L 154.6094 34.918125 
L 122.376563 34.918125 
z
" clip-path="url(#p24ebc23557)" style="fill: #6495ed"/>
   </g>
   <g id="matplotlib.axis_1">
    <g id="xtick_1">
     <g id="line2d_1">
      <defs>
       <path id="m35fd465dc9" d="M 0 0 
L 0 3.5 
" style="stroke: #000000; stroke-width: 0.8"/>
      </defs>
      <g>
       <use xlink:href="#m35fd465dc9" x="122.376563" y="299.518125" style="stroke: #000000; stroke-width: 0.8"/>
      </g>
     </g>
     <g id="text_1">
      <!-- 0 -->
      <g transform="translate(119.195312 314.116563) scale(0.1 -0.1)">
       <defs>
        <path id="DejaVuSans-30" d="M 2034 4250 
Q 1547 4250 1301 3770 
Q 1056 3291 1056 2328 
Q 1056 1369 1301 889 
Q 1547 409 2034 409 
Q 2525 409 2770 889 
Q 3016 1369 3016 2328 
Q 3016 3291 2770 3770 
Q 2525 4250 2034 4250 
z
M 2034 4750 
Q 2819 4750 3233 4129 
Q 3647 3509 3647 2328 
Q 3647 1150 3233 529 
Q 2819 -91 2034 -91 
Q 1250 -91 836 529 
Q 422 1150 422 2328 
Q 422 3509 836 4129 
Q 1250 4750 2034 4750 
z
" transform="scale(0.015625)"/>
       </defs>
       <use xlink:href="#DejaVuSans-30"/>
      </g>
     </g>
    </g>
    <g id="xtick_2">
     <g id="line2d_2">
      <g>
       <use xlink:href="#m35fd465dc9" x="163.700713" y="299.518125" style="stroke: #000000; stroke-width: 0.8"/>
      </g>
     </g>
     <g id="text_2">
      <!-- 200 -->
      <g transform="translate(154.156963 314.116563) scale(0.1 -0.1)">
       <defs>
        <path id="DejaVuSans-32" d="M 1228 531 
L 3431 531 
L 3431 0 
L 469 0 
L 469 531 
Q 828 903 1448 1529 
Q 2069 2156 2228 2338 
Q 2531 2678 2651 2914 
Q 2772 3150 2772 3378 
Q 2772 3750 2511 3984 
Q 2250 4219 1831 4219 
Q 1534 4219 1204 4116 
Q 875 4013 500 3803 
L 500 4441 
Q 881 4594 1212 4672 
Q 1544 4750 1819 4750 
Q 2544 4750 2975 4387 
Q 3406 4025 3406 3419 
Q 3406 3131 3298 2873 
Q 3191 2616 2906 2266 
Q 2828 2175 2409 1742 
Q 1991 1309 1228 531 
z
" transform="scale(0.015625)"/>
       </defs>
       <use xlink:href="#DejaVuSans-32"/>
       <use xlink:href="#DejaVuSans-30" x="63.623047"/>
       <use xlink:href="#DejaVuSans-30" x="127.246094"/>
      </g>
     </g>
    </g>
    <g id="xtick_3">
     <g id="line2d_3">
      <g>
       <use xlink:href="#m35fd465dc9" x="205.024863" y="299.518125" style="stroke: #000000; stroke-width: 0.8"/>
      </g>
     </g>
     <g id="text_3">
      <!-- 400 -->
      <g transform="translate(195.481113 314.116563) scale(0.1 -0.1)">
       <defs>
        <path id="DejaVuSans-34" d="M 2419 4116 
L 825 1625 
L 2419 1625 
L 2419 4116 
z
M 2253 4666 
L 3047 4666 
L 3047 1625 
L 3713 1625 
L 3713 1100 
L 3047 1100 
L 3047 0 
L 2419 0 
L 2419 1100 
L 313 1100 
L 313 1709 
L 2253 4666 
z
" transform="scale(0.015625)"/>
       </defs>
       <use xlink:href="#DejaVuSans-34"/>
       <use xlink:href="#DejaVuSans-30" x="63.623047"/>
       <use xlink:href="#DejaVuSans-30" x="127.246094"/>
      </g>
     </g>
    </g>
    <g id="xtick_4">
     <g id="line2d_4">
      <g>
       <use xlink:href="#m35fd465dc9" x="246.349013" y="299.518125" style="stroke: #000000; stroke-width: 0.8"/>
      </g>
     </g>
     <g id="text_4">
      <!-- 600 -->
      <g transform="translate(236.805263 314.116563) scale(0.1 -0.1)">
       <defs>
        <path id="DejaVuSans-36" d="M 2113 2584 
Q 1688 2584 1439 2293 
Q 1191 2003 1191 1497 
Q 1191 994 1439 701 
Q 1688 409 2113 409 
Q 2538 409 2786 701 
Q 3034 994 3034 1497 
Q 3034 2003 2786 2293 
Q 2538 2584 2113 2584 
z
M 3366 4563 
L 3366 3988 
Q 3128 4100 2886 4159 
Q 2644 4219 2406 4219 
Q 1781 4219 1451 3797 
Q 1122 3375 1075 2522 
Q 1259 2794 1537 2939 
Q 1816 3084 2150 3084 
Q 2853 3084 3261 2657 
Q 3669 2231 3669 1497 
Q 3669 778 3244 343 
Q 2819 -91 2113 -91 
Q 1303 -91 875 529 
Q 447 1150 447 2328 
Q 447 3434 972 4092 
Q 1497 4750 2381 4750 
Q 2619 4750 2861 4703 
Q 3103 4656 3366 4563 
z
" transform="scale(0.015625)"/>
       </defs>
       <use xlink:href="#DejaVuSans-36"/>
       <use xlink:href="#DejaVuSans-30" x="63.623047"/>
       <use xlink:href="#DejaVuSans-30" x="127.246094"/>
      </g>
     </g>
    </g>
    <g id="xtick_5">
     <g id="line2d_5">
      <g>
       <use xlink:href="#m35fd465dc9" x="287.673163" y="299.518125" style="stroke: #000000; stroke-width: 0.8"/>
      </g>
     </g>
     <g id="text_5">
      <!-- 800 -->
      <g transform="translate(278.129413 314.116563) scale(0.1 -0.1)">
       <defs>
        <path id="DejaVuSans-38" d="M 2034 2216 
Q 1584 2216 1326 1975 
Q 1069 1734 1069 1313 
Q 1069 891 1326 650 
Q 1584 409 2034 409 
Q 2484 409 2743 651 
Q 3003 894 3003 1313 
Q 3003 1734 2745 1975 
Q 2488 2216 2034 2216 
z
M 1403 2484 
Q 997 2584 770 2862 
Q 544 3141 544 3541 
Q 544 4100 942 4425 
Q 1341 4750 2034 4750 
Q 2731 4750 3128 4425 
Q 3525 4100 3525 3541 
Q 3525 3141 3298 2862 
Q 3072 2584 2669 2484 
Q 3125 2378 3379 2068 
Q 3634 1759 3634 1313 
Q 3634 634 3220 271 
Q 2806 -91 2034 -91 
Q 1263 -91 848 271 
Q 434 634 434 1313 
Q 434 1759 690 2068 
Q 947 2378 1403 2484 
z
M 1172 3481 
Q 1172 3119 1398 2916 
Q 1625 2713 2034 2713 
Q 2441 2713 2670 2916 
Q 2900 3119 2900 3481 
Q 2900 3844 2670 4047 
Q 2441 4250 2034 4250 
Q 1625 4250 1398 4047 
Q 1172 3844 1172 3481 
z
" transform="scale(0.015625)"/>
       </defs>
       <use xlink:href="#DejaVuSans-38"/>
       <use xlink:href="#DejaVuSans-30" x="63.623047"/>
       <use xlink:href="#DejaVuSans-30" x="127.246094"/>
      </g>
     </g>
    </g>
    <g id="xtick_6">
     <g id="line2d_6">
      <g>
       <use xlink:href="#m35fd465dc9" x="328.997313" y="299.518125" style="stroke: #000000; stroke-width: 0.8"/>
      </g>
     </g>
     <g id="text_6">
      <!-- 1000 -->
      <g transform="translate(316.272313 314.116563) scale(0.1 -0.1)">
       <defs>
        <path id="DejaVuSans-31" d="M 794 531 
L 1825 531 
L 1825 4091 
L 703 3866 
L 703 4441 
L 1819 4666 
L 2450 4666 
L 2450 531 
L 3481 531 
L 3481 0 
L 794 0 
L 794 531 
z
" transform="scale(0.015625)"/>
       </defs>
       <use xlink:href="#DejaVuSans-31"/>
       <use xlink:href="#DejaVuSans-30" x="63.623047"/>
       <use xlink:href="#DejaVuSans-30" x="127.246094"/>
       <use xlink:href="#DejaVuSans-30" x="190.869141"/>
      </g>
     </g>
    </g>
    <g id="xtick_7">
     <g id="line2d_7">
      <g>
       <use xlink:href="#m35fd465dc9" x="370.321464" y="299.518125" style="stroke: #000000; stroke-width: 0.8"/>
      </g>
     </g>
     <g id="text_7">
      <!-- 1200 -->
      <g transform="translate(357.596464 314.116563) scale(0.1 -0.1)">
       <use xlink:href="#DejaVuSans-31"/>
       <use xlink:href="#DejaVuSans-32" x="63.623047"/>
       <use xlink:href="#DejaVuSans-30" x="127.246094"/>
       <use xlink:href="#DejaVuSans-30" x="190.869141"/>
      </g>
     </g>
    </g>
    <g id="text_8">
     <!-- Question Count -->
     <g transform="translate(223.075781 327.794688) scale(0.1 -0.1)">
      <defs>
       <path id="DejaVuSans-51" d="M 2522 4238 
Q 1834 4238 1429 3725 
Q 1025 3213 1025 2328 
Q 1025 1447 1429 934 
Q 1834 422 2522 422 
Q 3209 422 3611 934 
Q 4013 1447 4013 2328 
Q 4013 3213 3611 3725 
Q 3209 4238 2522 4238 
z
M 3406 84 
L 4238 -825 
L 3475 -825 
L 2784 -78 
Q 2681 -84 2626 -87 
Q 2572 -91 2522 -91 
Q 1538 -91 948 567 
Q 359 1225 359 2328 
Q 359 3434 948 4092 
Q 1538 4750 2522 4750 
Q 3503 4750 4090 4092 
Q 4678 3434 4678 2328 
Q 4678 1516 4351 937 
Q 4025 359 3406 84 
z
" transform="scale(0.015625)"/>
       <path id="DejaVuSans-75" d="M 544 1381 
L 544 3500 
L 1119 3500 
L 1119 1403 
Q 1119 906 1312 657 
Q 1506 409 1894 409 
Q 2359 409 2629 706 
Q 2900 1003 2900 1516 
L 2900 3500 
L 3475 3500 
L 3475 0 
L 2900 0 
L 2900 538 
Q 2691 219 2414 64 
Q 2138 -91 1772 -91 
Q 1169 -91 856 284 
Q 544 659 544 1381 
z
M 1991 3584 
L 1991 3584 
z
" transform="scale(0.015625)"/>
       <path id="DejaVuSans-65" d="M 3597 1894 
L 3597 1613 
L 953 1613 
Q 991 1019 1311 708 
Q 1631 397 2203 397 
Q 2534 397 2845 478 
Q 3156 559 3463 722 
L 3463 178 
Q 3153 47 2828 -22 
Q 2503 -91 2169 -91 
Q 1331 -91 842 396 
Q 353 884 353 1716 
Q 353 2575 817 3079 
Q 1281 3584 2069 3584 
Q 2775 3584 3186 3129 
Q 3597 2675 3597 1894 
z
M 3022 2063 
Q 3016 2534 2758 2815 
Q 2500 3097 2075 3097 
Q 1594 3097 1305 2825 
Q 1016 2553 972 2059 
L 3022 2063 
z
" transform="scale(0.015625)"/>
       <path id="DejaVuSans-73" d="M 2834 3397 
L 2834 2853 
Q 2591 2978 2328 3040 
Q 2066 3103 1784 3103 
Q 1356 3103 1142 2972 
Q 928 2841 928 2578 
Q 928 2378 1081 2264 
Q 1234 2150 1697 2047 
L 1894 2003 
Q 2506 1872 2764 1633 
Q 3022 1394 3022 966 
Q 3022 478 2636 193 
Q 2250 -91 1575 -91 
Q 1294 -91 989 -36 
Q 684 19 347 128 
L 347 722 
Q 666 556 975 473 
Q 1284 391 1588 391 
Q 1994 391 2212 530 
Q 2431 669 2431 922 
Q 2431 1156 2273 1281 
Q 2116 1406 1581 1522 
L 1381 1569 
Q 847 1681 609 1914 
Q 372 2147 372 2553 
Q 372 3047 722 3315 
Q 1072 3584 1716 3584 
Q 2034 3584 2315 3537 
Q 2597 3491 2834 3397 
z
" transform="scale(0.015625)"/>
       <path id="DejaVuSans-74" d="M 1172 4494 
L 1172 3500 
L 2356 3500 
L 2356 3053 
L 1172 3053 
L 1172 1153 
Q 1172 725 1289 603 
Q 1406 481 1766 481 
L 2356 481 
L 2356 0 
L 1766 0 
Q 1100 0 847 248 
Q 594 497 594 1153 
L 594 3053 
L 172 3053 
L 172 3500 
L 594 3500 
L 594 4494 
L 1172 4494 
z
" transform="scale(0.015625)"/>
       <path id="DejaVuSans-69" d="M 603 3500 
L 1178 3500 
L 1178 0 
L 603 0 
L 603 3500 
z
M 603 4863 
L 1178 4863 
L 1178 4134 
L 603 4134 
L 603 4863 
z
" transform="scale(0.015625)"/>
       <path id="DejaVuSans-6f" d="M 1959 3097 
Q 1497 3097 1228 2736 
Q 959 2375 959 1747 
Q 959 1119 1226 758 
Q 1494 397 1959 397 
Q 2419 397 2687 759 
Q 2956 1122 2956 1747 
Q 2956 2369 2687 2733 
Q 2419 3097 1959 3097 
z
M 1959 3584 
Q 2709 3584 3137 3096 
Q 3566 2609 3566 1747 
Q 3566 888 3137 398 
Q 2709 -91 1959 -91 
Q 1206 -91 779 398 
Q 353 888 353 1747 
Q 353 2609 779 3096 
Q 1206 3584 1959 3584 
z
" transform="scale(0.015625)"/>
       <path id="DejaVuSans-6e" d="M 3513 2113 
L 3513 0 
L 2938 0 
L 2938 2094 
Q 2938 2591 2744 2837 
Q 2550 3084 2163 3084 
Q 1697 3084 1428 2787 
Q 1159 2491 1159 1978 
L 1159 0 
L 581 0 
L 581 3500 
L 1159 3500 
L 1159 2956 
Q 1366 3272 1645 3428 
Q 1925 3584 2291 3584 
Q 2894 3584 3203 3211 
Q 3513 2838 3513 2113 
z
" transform="scale(0.015625)"/>
       <path id="DejaVuSans-20" transform="scale(0.015625)"/>
       <path id="DejaVuSans-43" d="M 4122 4306 
L 4122 3641 
Q 3803 3938 3442 4084 
Q 3081 4231 2675 4231 
Q 1875 4231 1450 3742 
Q 1025 3253 1025 2328 
Q 1025 1406 1450 917 
Q 1875 428 2675 428 
Q 3081 428 3442 575 
Q 3803 722 4122 1019 
L 4122 359 
Q 3791 134 3420 21 
Q 3050 -91 2638 -91 
Q 1578 -91 968 557 
Q 359 1206 359 2328 
Q 359 3453 968 4101 
Q 1578 4750 2638 4750 
Q 3056 4750 3426 4639 
Q 3797 4528 4122 4306 
z
" transform="scale(0.015625)"/>
      </defs>
      <use xlink:href="#DejaVuSans-51"/>
      <use xlink:href="#DejaVuSans-75" x="78.710938"/>
      <use xlink:href="#DejaVuSans-65" x="142.089844"/>
      <use xlink:href="#DejaVuSans-73" x="203.613281"/>
      <use xlink:href="#DejaVuSans-74" x="255.712891"/>
      <use xlink:href="#DejaVuSans-69" x="294.921875"/>
      <use xlink:href="#DejaVuSans-6f" x="322.705078"/>
      <use xlink:href="#DejaVuSans-6e" x="383.886719"/>
      <use xlink:href="#DejaVuSans-20" x="447.265625"/>
      <use xlink:href="#DejaVuSans-43" x="479.052734"/>
      <use xlink:href="#DejaVuSans-6f" x="548.876953"/>
      <use xlink:href="#DejaVuSans-75" x="610.058594"/>
      <use xlink:href="#DejaVuSans-6e" x="673.4375"/>
      <use xlink:href="#DejaVuSans-74" x="736.816406"/>
     </g>
    </g>
   </g>
   <g id="matplotlib.axis_2">
    <g id="ytick_1">
     <g id="line2d_8">
      <defs>
       <path id="m0623728cec" d="M 0 0 
L -3.5 0 
" style="stroke: #000000; stroke-width: 0.8"/>
      </defs>
      <g>
       <use xlink:href="#m0623728cec" x="122.376563" y="276.632411" style="stroke: #000000; stroke-width: 0.8"/>
      </g>
     </g>
     <g id="text_9">
      <!-- frauenheilkunde -->
      <g transform="translate(34.0875 275.592567) scale(0.1 -0.1)">
       <defs>
        <path id="DejaVuSans-66" d="M 2375 4863 
L 2375 4384 
L 1825 4384 
Q 1516 4384 1395 4259 
Q 1275 4134 1275 3809 
L 1275 3500 
L 2222 3500 
L 2222 3053 
L 1275 3053 
L 1275 0 
L 697 0 
L 697 3053 
L 147 3053 
L 147 3500 
L 697 3500 
L 697 3744 
Q 697 4328 969 4595 
Q 1241 4863 1831 4863 
L 2375 4863 
z
" transform="scale(0.015625)"/>
        <path id="DejaVuSans-72" d="M 2631 2963 
Q 2534 3019 2420 3045 
Q 2306 3072 2169 3072 
Q 1681 3072 1420 2755 
Q 1159 2438 1159 1844 
L 1159 0 
L 581 0 
L 581 3500 
L 1159 3500 
L 1159 2956 
Q 1341 3275 1631 3429 
Q 1922 3584 2338 3584 
Q 2397 3584 2469 3576 
Q 2541 3569 2628 3553 
L 2631 2963 
z
" transform="scale(0.015625)"/>
        <path id="DejaVuSans-61" d="M 2194 1759 
Q 1497 1759 1228 1600 
Q 959 1441 959 1056 
Q 959 750 1161 570 
Q 1363 391 1709 391 
Q 2188 391 2477 730 
Q 2766 1069 2766 1631 
L 2766 1759 
L 2194 1759 
z
M 3341 1997 
L 3341 0 
L 2766 0 
L 2766 531 
Q 2569 213 2275 61 
Q 1981 -91 1556 -91 
Q 1019 -91 701 211 
Q 384 513 384 1019 
Q 384 1609 779 1909 
Q 1175 2209 1959 2209 
L 2766 2209 
L 2766 2266 
Q 2766 2663 2505 2880 
Q 2244 3097 1772 3097 
Q 1472 3097 1187 3025 
Q 903 2953 641 2809 
L 641 3341 
Q 956 3463 1253 3523 
Q 1550 3584 1831 3584 
Q 2591 3584 2966 3190 
Q 3341 2797 3341 1997 
z
" transform="scale(0.015625)"/>
        <path id="DejaVuSans-68" d="M 3513 2113 
L 3513 0 
L 2938 0 
L 2938 2094 
Q 2938 2591 2744 2837 
Q 2550 3084 2163 3084 
Q 1697 3084 1428 2787 
Q 1159 2491 1159 1978 
L 1159 0 
L 581 0 
L 581 4863 
L 1159 4863 
L 1159 2956 
Q 1366 3272 1645 3428 
Q 1925 3584 2291 3584 
Q 2894 3584 3203 3211 
Q 3513 2838 3513 2113 
z
" transform="scale(0.015625)"/>
        <path id="DejaVuSans-6c" d="M 603 4863 
L 1178 4863 
L 1178 0 
L 603 0 
L 603 4863 
z
" transform="scale(0.015625)"/>
        <path id="DejaVuSans-6b" d="M 581 4863 
L 1159 4863 
L 1159 1991 
L 2875 3500 
L 3609 3500 
L 1753 1863 
L 3688 0 
L 2938 0 
L 1159 1709 
L 1159 0 
L 581 0 
L 581 4863 
z
" transform="scale(0.015625)"/>
        <path id="DejaVuSans-64" d="M 2906 2969 
L 2906 4863 
L 3481 4863 
L 3481 0 
L 2906 0 
L 2906 525 
Q 2725 213 2448 61 
Q 2172 -91 1784 -91 
Q 1150 -91 751 415 
Q 353 922 353 1747 
Q 353 2572 751 3078 
Q 1150 3584 1784 3584 
Q 2172 3584 2448 3432 
Q 2725 3281 2906 2969 
z
M 947 1747 
Q 947 1113 1208 752 
Q 1469 391 1925 391 
Q 2381 391 2643 752 
Q 2906 1113 2906 1747 
Q 2906 2381 2643 2742 
Q 2381 3103 1925 3103 
Q 1469 3103 1208 2742 
Q 947 2381 947 1747 
z
" transform="scale(0.015625)"/>
       </defs>
       <use xlink:href="#DejaVuSans-66"/>
       <use xlink:href="#DejaVuSans-72" x="35.205078"/>
       <use xlink:href="#DejaVuSans-61" x="76.318359"/>
       <use xlink:href="#DejaVuSans-75" x="137.597656"/>
       <use xlink:href="#DejaVuSans-65" x="200.976562"/>
       <use xlink:href="#DejaVuSans-6e" x="262.5"/>
       <use xlink:href="#DejaVuSans-68" x="325.878906"/>
       <use xlink:href="#DejaVuSans-65" x="389.257812"/>
       <use xlink:href="#DejaVuSans-69" x="450.78125"/>
       <use xlink:href="#DejaVuSans-6c" x="478.564453"/>
       <use xlink:href="#DejaVuSans-6b" x="506.347656"/>
       <use xlink:href="#DejaVuSans-75" x="561.132812"/>
       <use xlink:href="#DejaVuSans-6e" x="624.511719"/>
       <use xlink:href="#DejaVuSans-64" x="687.890625"/>
       <use xlink:href="#DejaVuSans-65" x="751.367188"/>
      </g>
      <!-- allgemein -->
      <g transform="translate(66.18125 286.790379) scale(0.1 -0.1)">
       <defs>
        <path id="DejaVuSans-67" d="M 2906 1791 
Q 2906 2416 2648 2759 
Q 2391 3103 1925 3103 
Q 1463 3103 1205 2759 
Q 947 2416 947 1791 
Q 947 1169 1205 825 
Q 1463 481 1925 481 
Q 2391 481 2648 825 
Q 2906 1169 2906 1791 
z
M 3481 434 
Q 3481 -459 3084 -895 
Q 2688 -1331 1869 -1331 
Q 1566 -1331 1297 -1286 
Q 1028 -1241 775 -1147 
L 775 -588 
Q 1028 -725 1275 -790 
Q 1522 -856 1778 -856 
Q 2344 -856 2625 -561 
Q 2906 -266 2906 331 
L 2906 616 
Q 2728 306 2450 153 
Q 2172 0 1784 0 
Q 1141 0 747 490 
Q 353 981 353 1791 
Q 353 2603 747 3093 
Q 1141 3584 1784 3584 
Q 2172 3584 2450 3431 
Q 2728 3278 2906 2969 
L 2906 3500 
L 3481 3500 
L 3481 434 
z
" transform="scale(0.015625)"/>
        <path id="DejaVuSans-6d" d="M 3328 2828 
Q 3544 3216 3844 3400 
Q 4144 3584 4550 3584 
Q 5097 3584 5394 3201 
Q 5691 2819 5691 2113 
L 5691 0 
L 5113 0 
L 5113 2094 
Q 5113 2597 4934 2840 
Q 4756 3084 4391 3084 
Q 3944 3084 3684 2787 
Q 3425 2491 3425 1978 
L 3425 0 
L 2847 0 
L 2847 2094 
Q 2847 2600 2669 2842 
Q 2491 3084 2119 3084 
Q 1678 3084 1418 2786 
Q 1159 2488 1159 1978 
L 1159 0 
L 581 0 
L 581 3500 
L 1159 3500 
L 1159 2956 
Q 1356 3278 1631 3431 
Q 1906 3584 2284 3584 
Q 2666 3584 2933 3390 
Q 3200 3197 3328 2828 
z
" transform="scale(0.015625)"/>
       </defs>
       <use xlink:href="#DejaVuSans-61"/>
       <use xlink:href="#DejaVuSans-6c" x="61.279297"/>
       <use xlink:href="#DejaVuSans-6c" x="89.0625"/>
       <use xlink:href="#DejaVuSans-67" x="116.845703"/>
       <use xlink:href="#DejaVuSans-65" x="180.322266"/>
       <use xlink:href="#DejaVuSans-6d" x="241.845703"/>
       <use xlink:href="#DejaVuSans-65" x="339.257812"/>
       <use xlink:href="#DejaVuSans-69" x="400.78125"/>
       <use xlink:href="#DejaVuSans-6e" x="428.564453"/>
      </g>
     </g>
    </g>
    <g id="ytick_2">
     <g id="line2d_9">
      <g>
       <use xlink:href="#m0623728cec" x="122.376563" y="250.918125" style="stroke: #000000; stroke-width: 0.8"/>
      </g>
     </g>
     <g id="text_10">
      <!-- frauenheilkunde -->
      <g transform="translate(34.0875 249.878281) scale(0.1 -0.1)">
       <use xlink:href="#DejaVuSans-66"/>
       <use xlink:href="#DejaVuSans-72" x="35.205078"/>
       <use xlink:href="#DejaVuSans-61" x="76.318359"/>
       <use xlink:href="#DejaVuSans-75" x="137.597656"/>
       <use xlink:href="#DejaVuSans-65" x="200.976562"/>
       <use xlink:href="#DejaVuSans-6e" x="262.5"/>
       <use xlink:href="#DejaVuSans-68" x="325.878906"/>
       <use xlink:href="#DejaVuSans-65" x="389.257812"/>
       <use xlink:href="#DejaVuSans-69" x="450.78125"/>
       <use xlink:href="#DejaVuSans-6c" x="478.564453"/>
       <use xlink:href="#DejaVuSans-6b" x="506.347656"/>
       <use xlink:href="#DejaVuSans-75" x="561.132812"/>
       <use xlink:href="#DejaVuSans-6e" x="624.511719"/>
       <use xlink:href="#DejaVuSans-64" x="687.890625"/>
       <use xlink:href="#DejaVuSans-65" x="751.367188"/>
      </g>
      <!-- wechseljahre -->
      <g transform="translate(49.785938 261.076094) scale(0.1 -0.1)">
       <defs>
        <path id="DejaVuSans-77" d="M 269 3500 
L 844 3500 
L 1563 769 
L 2278 3500 
L 2956 3500 
L 3675 769 
L 4391 3500 
L 4966 3500 
L 4050 0 
L 3372 0 
L 2619 2869 
L 1863 0 
L 1184 0 
L 269 3500 
z
" transform="scale(0.015625)"/>
        <path id="DejaVuSans-63" d="M 3122 3366 
L 3122 2828 
Q 2878 2963 2633 3030 
Q 2388 3097 2138 3097 
Q 1578 3097 1268 2742 
Q 959 2388 959 1747 
Q 959 1106 1268 751 
Q 1578 397 2138 397 
Q 2388 397 2633 464 
Q 2878 531 3122 666 
L 3122 134 
Q 2881 22 2623 -34 
Q 2366 -91 2075 -91 
Q 1284 -91 818 406 
Q 353 903 353 1747 
Q 353 2603 823 3093 
Q 1294 3584 2113 3584 
Q 2378 3584 2631 3529 
Q 2884 3475 3122 3366 
z
" transform="scale(0.015625)"/>
        <path id="DejaVuSans-6a" d="M 603 3500 
L 1178 3500 
L 1178 -63 
Q 1178 -731 923 -1031 
Q 669 -1331 103 -1331 
L -116 -1331 
L -116 -844 
L 38 -844 
Q 366 -844 484 -692 
Q 603 -541 603 -63 
L 603 3500 
z
M 603 4863 
L 1178 4863 
L 1178 4134 
L 603 4134 
L 603 4863 
z
" transform="scale(0.015625)"/>
       </defs>
       <use xlink:href="#DejaVuSans-77"/>
       <use xlink:href="#DejaVuSans-65" x="81.787109"/>
       <use xlink:href="#DejaVuSans-63" x="143.310547"/>
       <use xlink:href="#DejaVuSans-68" x="198.291016"/>
       <use xlink:href="#DejaVuSans-73" x="261.669922"/>
       <use xlink:href="#DejaVuSans-65" x="313.769531"/>
       <use xlink:href="#DejaVuSans-6c" x="375.292969"/>
       <use xlink:href="#DejaVuSans-6a" x="403.076172"/>
       <use xlink:href="#DejaVuSans-61" x="430.859375"/>
       <use xlink:href="#DejaVuSans-68" x="492.138672"/>
       <use xlink:href="#DejaVuSans-72" x="555.517578"/>
       <use xlink:href="#DejaVuSans-65" x="594.380859"/>
      </g>
     </g>
    </g>
    <g id="ytick_3">
     <g id="line2d_10">
      <g>
       <use xlink:href="#m0623728cec" x="122.376563" y="225.203839" style="stroke: #000000; stroke-width: 0.8"/>
      </g>
     </g>
     <g id="text_11">
      <!-- frauenheilkunde -->
      <g transform="translate(34.0875 224.163996) scale(0.1 -0.1)">
       <use xlink:href="#DejaVuSans-66"/>
       <use xlink:href="#DejaVuSans-72" x="35.205078"/>
       <use xlink:href="#DejaVuSans-61" x="76.318359"/>
       <use xlink:href="#DejaVuSans-75" x="137.597656"/>
       <use xlink:href="#DejaVuSans-65" x="200.976562"/>
       <use xlink:href="#DejaVuSans-6e" x="262.5"/>
       <use xlink:href="#DejaVuSans-68" x="325.878906"/>
       <use xlink:href="#DejaVuSans-65" x="389.257812"/>
       <use xlink:href="#DejaVuSans-69" x="450.78125"/>
       <use xlink:href="#DejaVuSans-6c" x="478.564453"/>
       <use xlink:href="#DejaVuSans-6b" x="506.347656"/>
       <use xlink:href="#DejaVuSans-75" x="561.132812"/>
       <use xlink:href="#DejaVuSans-6e" x="624.511719"/>
       <use xlink:href="#DejaVuSans-64" x="687.890625"/>
       <use xlink:href="#DejaVuSans-65" x="751.367188"/>
      </g>
      <!-- schwangerschaft -->
      <g transform="translate(30.635937 235.361808) scale(0.1 -0.1)">
       <use xlink:href="#DejaVuSans-73"/>
       <use xlink:href="#DejaVuSans-63" x="52.099609"/>
       <use xlink:href="#DejaVuSans-68" x="107.080078"/>
       <use xlink:href="#DejaVuSans-77" x="170.458984"/>
       <use xlink:href="#DejaVuSans-61" x="252.246094"/>
       <use xlink:href="#DejaVuSans-6e" x="313.525391"/>
       <use xlink:href="#DejaVuSans-67" x="376.904297"/>
       <use xlink:href="#DejaVuSans-65" x="440.380859"/>
       <use xlink:href="#DejaVuSans-72" x="501.904297"/>
       <use xlink:href="#DejaVuSans-73" x="543.017578"/>
       <use xlink:href="#DejaVuSans-63" x="595.117188"/>
       <use xlink:href="#DejaVuSans-68" x="650.097656"/>
       <use xlink:href="#DejaVuSans-61" x="713.476562"/>
       <use xlink:href="#DejaVuSans-66" x="774.755859"/>
       <use xlink:href="#DejaVuSans-74" x="808.210938"/>
      </g>
     </g>
    </g>
    <g id="ytick_4">
     <g id="line2d_11">
      <g>
       <use xlink:href="#m0623728cec" x="122.376563" y="199.489554" style="stroke: #000000; stroke-width: 0.8"/>
      </g>
     </g>
     <g id="text_12">
      <!-- haut-haare-naegel -->
      <g transform="translate(22.90625 198.44971) scale(0.1 -0.1)">
       <defs>
        <path id="DejaVuSans-2d" d="M 313 2009 
L 1997 2009 
L 1997 1497 
L 313 1497 
L 313 2009 
z
" transform="scale(0.015625)"/>
       </defs>
       <use xlink:href="#DejaVuSans-68"/>
       <use xlink:href="#DejaVuSans-61" x="63.378906"/>
       <use xlink:href="#DejaVuSans-75" x="124.658203"/>
       <use xlink:href="#DejaVuSans-74" x="188.037109"/>
       <use xlink:href="#DejaVuSans-2d" x="227.246094"/>
       <use xlink:href="#DejaVuSans-68" x="263.330078"/>
       <use xlink:href="#DejaVuSans-61" x="326.708984"/>
       <use xlink:href="#DejaVuSans-61" x="387.988281"/>
       <use xlink:href="#DejaVuSans-72" x="449.267578"/>
       <use xlink:href="#DejaVuSans-65" x="488.130859"/>
       <use xlink:href="#DejaVuSans-2d" x="549.654297"/>
       <use xlink:href="#DejaVuSans-6e" x="585.738281"/>
       <use xlink:href="#DejaVuSans-61" x="649.117188"/>
       <use xlink:href="#DejaVuSans-65" x="710.396484"/>
       <use xlink:href="#DejaVuSans-67" x="771.919922"/>
       <use xlink:href="#DejaVuSans-65" x="835.396484"/>
       <use xlink:href="#DejaVuSans-6c" x="896.919922"/>
      </g>
      <!-- dermatologie -->
      <g transform="translate(48.854687 209.647522) scale(0.1 -0.1)">
       <use xlink:href="#DejaVuSans-64"/>
       <use xlink:href="#DejaVuSans-65" x="63.476562"/>
       <use xlink:href="#DejaVuSans-72" x="125"/>
       <use xlink:href="#DejaVuSans-6d" x="164.363281"/>
       <use xlink:href="#DejaVuSans-61" x="261.775391"/>
       <use xlink:href="#DejaVuSans-74" x="323.054688"/>
       <use xlink:href="#DejaVuSans-6f" x="362.263672"/>
       <use xlink:href="#DejaVuSans-6c" x="423.445312"/>
       <use xlink:href="#DejaVuSans-6f" x="451.228516"/>
       <use xlink:href="#DejaVuSans-67" x="512.410156"/>
       <use xlink:href="#DejaVuSans-69" x="575.886719"/>
       <use xlink:href="#DejaVuSans-65" x="603.669922"/>
      </g>
     </g>
    </g>
    <g id="ytick_5">
     <g id="line2d_12">
      <g>
       <use xlink:href="#m0623728cec" x="122.376563" y="173.775268" style="stroke: #000000; stroke-width: 0.8"/>
      </g>
     </g>
     <g id="text_13">
      <!-- leben-familie -->
      <g transform="translate(50.121875 172.735424) scale(0.1 -0.1)">
       <defs>
        <path id="DejaVuSans-62" d="M 3116 1747 
Q 3116 2381 2855 2742 
Q 2594 3103 2138 3103 
Q 1681 3103 1420 2742 
Q 1159 2381 1159 1747 
Q 1159 1113 1420 752 
Q 1681 391 2138 391 
Q 2594 391 2855 752 
Q 3116 1113 3116 1747 
z
M 1159 2969 
Q 1341 3281 1617 3432 
Q 1894 3584 2278 3584 
Q 2916 3584 3314 3078 
Q 3713 2572 3713 1747 
Q 3713 922 3314 415 
Q 2916 -91 2278 -91 
Q 1894 -91 1617 61 
Q 1341 213 1159 525 
L 1159 0 
L 581 0 
L 581 4863 
L 1159 4863 
L 1159 2969 
z
" transform="scale(0.015625)"/>
       </defs>
       <use xlink:href="#DejaVuSans-6c"/>
       <use xlink:href="#DejaVuSans-65" x="27.783203"/>
       <use xlink:href="#DejaVuSans-62" x="89.306641"/>
       <use xlink:href="#DejaVuSans-65" x="152.783203"/>
       <use xlink:href="#DejaVuSans-6e" x="214.306641"/>
       <use xlink:href="#DejaVuSans-2d" x="277.685547"/>
       <use xlink:href="#DejaVuSans-66" x="313.769531"/>
       <use xlink:href="#DejaVuSans-61" x="348.974609"/>
       <use xlink:href="#DejaVuSans-6d" x="410.253906"/>
       <use xlink:href="#DejaVuSans-69" x="507.666016"/>
       <use xlink:href="#DejaVuSans-6c" x="535.449219"/>
       <use xlink:href="#DejaVuSans-69" x="563.232422"/>
       <use xlink:href="#DejaVuSans-65" x="591.015625"/>
      </g>
      <!-- verhuetung -->
      <g transform="translate(57.596875 183.933237) scale(0.1 -0.1)">
       <defs>
        <path id="DejaVuSans-76" d="M 191 3500 
L 800 3500 
L 1894 563 
L 2988 3500 
L 3597 3500 
L 2284 0 
L 1503 0 
L 191 3500 
z
" transform="scale(0.015625)"/>
       </defs>
       <use xlink:href="#DejaVuSans-76"/>
       <use xlink:href="#DejaVuSans-65" x="59.179688"/>
       <use xlink:href="#DejaVuSans-72" x="120.703125"/>
       <use xlink:href="#DejaVuSans-68" x="160.066406"/>
       <use xlink:href="#DejaVuSans-75" x="223.445312"/>
       <use xlink:href="#DejaVuSans-65" x="286.824219"/>
       <use xlink:href="#DejaVuSans-74" x="348.347656"/>
       <use xlink:href="#DejaVuSans-75" x="387.556641"/>
       <use xlink:href="#DejaVuSans-6e" x="450.935547"/>
       <use xlink:href="#DejaVuSans-67" x="514.314453"/>
      </g>
     </g>
    </g>
    <g id="ytick_6">
     <g id="line2d_13">
      <g>
       <use xlink:href="#m0623728cec" x="122.376563" y="148.060982" style="stroke: #000000; stroke-width: 0.8"/>
      </g>
     </g>
     <g id="text_14">
      <!-- magen-darm -->
      <g transform="translate(50.907813 147.021138) scale(0.1 -0.1)">
       <use xlink:href="#DejaVuSans-6d"/>
       <use xlink:href="#DejaVuSans-61" x="97.412109"/>
       <use xlink:href="#DejaVuSans-67" x="158.691406"/>
       <use xlink:href="#DejaVuSans-65" x="222.167969"/>
       <use xlink:href="#DejaVuSans-6e" x="283.691406"/>
       <use xlink:href="#DejaVuSans-2d" x="347.070312"/>
       <use xlink:href="#DejaVuSans-64" x="383.154297"/>
       <use xlink:href="#DejaVuSans-61" x="446.630859"/>
       <use xlink:href="#DejaVuSans-72" x="507.910156"/>
       <use xlink:href="#DejaVuSans-6d" x="547.273438"/>
      </g>
      <!-- durchfall-uebelkeit -->
      <g transform="translate(22.10625 158.218951) scale(0.1 -0.1)">
       <use xlink:href="#DejaVuSans-64"/>
       <use xlink:href="#DejaVuSans-75" x="63.476562"/>
       <use xlink:href="#DejaVuSans-72" x="126.855469"/>
       <use xlink:href="#DejaVuSans-63" x="165.71875"/>
       <use xlink:href="#DejaVuSans-68" x="220.699219"/>
       <use xlink:href="#DejaVuSans-66" x="284.078125"/>
       <use xlink:href="#DejaVuSans-61" x="319.283203"/>
       <use xlink:href="#DejaVuSans-6c" x="380.5625"/>
       <use xlink:href="#DejaVuSans-6c" x="408.345703"/>
       <use xlink:href="#DejaVuSans-2d" x="436.128906"/>
       <use xlink:href="#DejaVuSans-75" x="472.212891"/>
       <use xlink:href="#DejaVuSans-65" x="535.591797"/>
       <use xlink:href="#DejaVuSans-62" x="597.115234"/>
       <use xlink:href="#DejaVuSans-65" x="660.591797"/>
       <use xlink:href="#DejaVuSans-6c" x="722.115234"/>
       <use xlink:href="#DejaVuSans-6b" x="749.898438"/>
       <use xlink:href="#DejaVuSans-65" x="804.183594"/>
       <use xlink:href="#DejaVuSans-69" x="865.707031"/>
       <use xlink:href="#DejaVuSans-74" x="893.490234"/>
      </g>
     </g>
    </g>
    <g id="ytick_7">
     <g id="line2d_14">
      <g>
       <use xlink:href="#m0623728cec" x="122.376563" y="122.346696" style="stroke: #000000; stroke-width: 0.8"/>
      </g>
     </g>
     <g id="text_15">
      <!-- leben-familie -->
      <g transform="translate(50.121875 121.306853) scale(0.1 -0.1)">
       <use xlink:href="#DejaVuSans-6c"/>
       <use xlink:href="#DejaVuSans-65" x="27.783203"/>
       <use xlink:href="#DejaVuSans-62" x="89.306641"/>
       <use xlink:href="#DejaVuSans-65" x="152.783203"/>
       <use xlink:href="#DejaVuSans-6e" x="214.306641"/>
       <use xlink:href="#DejaVuSans-2d" x="277.685547"/>
       <use xlink:href="#DejaVuSans-66" x="313.769531"/>
       <use xlink:href="#DejaVuSans-61" x="348.974609"/>
       <use xlink:href="#DejaVuSans-6d" x="410.253906"/>
       <use xlink:href="#DejaVuSans-69" x="507.666016"/>
       <use xlink:href="#DejaVuSans-6c" x="535.449219"/>
       <use xlink:href="#DejaVuSans-69" x="563.232422"/>
       <use xlink:href="#DejaVuSans-65" x="591.015625"/>
      </g>
      <!-- kinder-jugendmedizin -->
      <g transform="translate(7.2 132.504665) scale(0.1 -0.1)">
       <defs>
        <path id="DejaVuSans-7a" d="M 353 3500 
L 3084 3500 
L 3084 2975 
L 922 459 
L 3084 459 
L 3084 0 
L 275 0 
L 275 525 
L 2438 3041 
L 353 3041 
L 353 3500 
z
" transform="scale(0.015625)"/>
       </defs>
       <use xlink:href="#DejaVuSans-6b"/>
       <use xlink:href="#DejaVuSans-69" x="57.910156"/>
       <use xlink:href="#DejaVuSans-6e" x="85.693359"/>
       <use xlink:href="#DejaVuSans-64" x="149.072266"/>
       <use xlink:href="#DejaVuSans-65" x="212.548828"/>
       <use xlink:href="#DejaVuSans-72" x="274.072266"/>
       <use xlink:href="#DejaVuSans-2d" x="308.810547"/>
       <use xlink:href="#DejaVuSans-6a" x="344.894531"/>
       <use xlink:href="#DejaVuSans-75" x="372.677734"/>
       <use xlink:href="#DejaVuSans-67" x="436.056641"/>
       <use xlink:href="#DejaVuSans-65" x="499.533203"/>
       <use xlink:href="#DejaVuSans-6e" x="561.056641"/>
       <use xlink:href="#DejaVuSans-64" x="624.435547"/>
       <use xlink:href="#DejaVuSans-6d" x="687.912109"/>
       <use xlink:href="#DejaVuSans-65" x="785.324219"/>
       <use xlink:href="#DejaVuSans-64" x="846.847656"/>
       <use xlink:href="#DejaVuSans-69" x="910.324219"/>
       <use xlink:href="#DejaVuSans-7a" x="938.107422"/>
       <use xlink:href="#DejaVuSans-69" x="990.597656"/>
       <use xlink:href="#DejaVuSans-6e" x="1018.380859"/>
      </g>
     </g>
    </g>
    <g id="ytick_8">
     <g id="line2d_15">
      <g>
       <use xlink:href="#m0623728cec" x="122.376563" y="96.632411" style="stroke: #000000; stroke-width: 0.8"/>
      </g>
     </g>
     <g id="text_16">
      <!-- allgemeinmedizin -->
      <g transform="translate(26.796875 100.431629) scale(0.1 -0.1)">
       <use xlink:href="#DejaVuSans-61"/>
       <use xlink:href="#DejaVuSans-6c" x="61.279297"/>
       <use xlink:href="#DejaVuSans-6c" x="89.0625"/>
       <use xlink:href="#DejaVuSans-67" x="116.845703"/>
       <use xlink:href="#DejaVuSans-65" x="180.322266"/>
       <use xlink:href="#DejaVuSans-6d" x="241.845703"/>
       <use xlink:href="#DejaVuSans-65" x="339.257812"/>
       <use xlink:href="#DejaVuSans-69" x="400.78125"/>
       <use xlink:href="#DejaVuSans-6e" x="428.564453"/>
       <use xlink:href="#DejaVuSans-6d" x="491.943359"/>
       <use xlink:href="#DejaVuSans-65" x="589.355469"/>
       <use xlink:href="#DejaVuSans-64" x="650.878906"/>
       <use xlink:href="#DejaVuSans-69" x="714.355469"/>
       <use xlink:href="#DejaVuSans-7a" x="742.138672"/>
       <use xlink:href="#DejaVuSans-69" x="794.628906"/>
       <use xlink:href="#DejaVuSans-6e" x="822.412109"/>
      </g>
     </g>
    </g>
    <g id="ytick_9">
     <g id="line2d_16">
      <g>
       <use xlink:href="#m0623728cec" x="122.376563" y="70.918125" style="stroke: #000000; stroke-width: 0.8"/>
      </g>
     </g>
     <g id="text_17">
      <!-- allgemeinmedizin -->
      <g transform="translate(26.796875 69.878281) scale(0.1 -0.1)">
       <use xlink:href="#DejaVuSans-61"/>
       <use xlink:href="#DejaVuSans-6c" x="61.279297"/>
       <use xlink:href="#DejaVuSans-6c" x="89.0625"/>
       <use xlink:href="#DejaVuSans-67" x="116.845703"/>
       <use xlink:href="#DejaVuSans-65" x="180.322266"/>
       <use xlink:href="#DejaVuSans-6d" x="241.845703"/>
       <use xlink:href="#DejaVuSans-65" x="339.257812"/>
       <use xlink:href="#DejaVuSans-69" x="400.78125"/>
       <use xlink:href="#DejaVuSans-6e" x="428.564453"/>
       <use xlink:href="#DejaVuSans-6d" x="491.943359"/>
       <use xlink:href="#DejaVuSans-65" x="589.355469"/>
       <use xlink:href="#DejaVuSans-64" x="650.878906"/>
       <use xlink:href="#DejaVuSans-69" x="714.355469"/>
       <use xlink:href="#DejaVuSans-7a" x="742.138672"/>
       <use xlink:href="#DejaVuSans-69" x="794.628906"/>
       <use xlink:href="#DejaVuSans-6e" x="822.412109"/>
      </g>
      <!-- hno -->
      <g transform="translate(96.582813 81.076094) scale(0.1 -0.1)">
       <use xlink:href="#DejaVuSans-68"/>
       <use xlink:href="#DejaVuSans-6e" x="63.378906"/>
       <use xlink:href="#DejaVuSans-6f" x="126.757812"/>
      </g>
     </g>
    </g>
    <g id="ytick_10">
     <g id="line2d_17">
      <g>
       <use xlink:href="#m0623728cec" x="122.376563" y="45.203839" style="stroke: #000000; stroke-width: 0.8"/>
      </g>
     </g>
     <g id="text_18">
      <!-- knochen-gelenke -->
      <g transform="translate(29.84375 44.163996) scale(0.1 -0.1)">
       <use xlink:href="#DejaVuSans-6b"/>
       <use xlink:href="#DejaVuSans-6e" x="57.910156"/>
       <use xlink:href="#DejaVuSans-6f" x="121.289062"/>
       <use xlink:href="#DejaVuSans-63" x="182.470703"/>
       <use xlink:href="#DejaVuSans-68" x="237.451172"/>
       <use xlink:href="#DejaVuSans-65" x="300.830078"/>
       <use xlink:href="#DejaVuSans-6e" x="362.353516"/>
       <use xlink:href="#DejaVuSans-2d" x="425.732422"/>
       <use xlink:href="#DejaVuSans-67" x="461.816406"/>
       <use xlink:href="#DejaVuSans-65" x="525.292969"/>
       <use xlink:href="#DejaVuSans-6c" x="586.816406"/>
       <use xlink:href="#DejaVuSans-65" x="614.599609"/>
       <use xlink:href="#DejaVuSans-6e" x="676.123047"/>
       <use xlink:href="#DejaVuSans-6b" x="739.501953"/>
       <use xlink:href="#DejaVuSans-65" x="793.787109"/>
      </g>
      <!-- rueckenschmerzen -->
      <g transform="translate(20.56875 55.361808) scale(0.1 -0.1)">
       <use xlink:href="#DejaVuSans-72"/>
       <use xlink:href="#DejaVuSans-75" x="41.113281"/>
       <use xlink:href="#DejaVuSans-65" x="104.492188"/>
       <use xlink:href="#DejaVuSans-63" x="166.015625"/>
       <use xlink:href="#DejaVuSans-6b" x="220.996094"/>
       <use xlink:href="#DejaVuSans-65" x="275.28125"/>
       <use xlink:href="#DejaVuSans-6e" x="336.804688"/>
       <use xlink:href="#DejaVuSans-73" x="400.183594"/>
       <use xlink:href="#DejaVuSans-63" x="452.283203"/>
       <use xlink:href="#DejaVuSans-68" x="507.263672"/>
       <use xlink:href="#DejaVuSans-6d" x="570.642578"/>
       <use xlink:href="#DejaVuSans-65" x="668.054688"/>
       <use xlink:href="#DejaVuSans-72" x="729.578125"/>
       <use xlink:href="#DejaVuSans-7a" x="770.691406"/>
       <use xlink:href="#DejaVuSans-65" x="823.181641"/>
       <use xlink:href="#DejaVuSans-6e" x="884.705078"/>
      </g>
     </g>
    </g>
   </g>
   <g id="patch_13">
    <path d="M 122.376563 299.518125 
L 122.376563 22.318125 
" style="fill: none; stroke: #000000; stroke-width: 0.8; stroke-linejoin: miter; stroke-linecap: square"/>
   </g>
   <g id="patch_14">
    <path d="M 401.376562 299.518125 
L 401.376562 22.318125 
" style="fill: none; stroke: #000000; stroke-width: 0.8; stroke-linejoin: miter; stroke-linecap: square"/>
   </g>
   <g id="patch_15">
    <path d="M 122.376563 299.518125 
L 401.376562 299.518125 
" style="fill: none; stroke: #000000; stroke-width: 0.8; stroke-linejoin: miter; stroke-linecap: square"/>
   </g>
   <g id="patch_16">
    <path d="M 122.376563 22.318125 
L 401.376562 22.318125 
" style="fill: none; stroke: #000000; stroke-width: 0.8; stroke-linejoin: miter; stroke-linecap: square"/>
   </g>
   <g id="text_19">
    <!-- Top 10 Categories by Question Count -->
    <g transform="translate(150.225937 16.318125) scale(0.12 -0.12)">
     <defs>
      <path id="DejaVuSans-54" d="M -19 4666 
L 3928 4666 
L 3928 4134 
L 2272 4134 
L 2272 0 
L 1638 0 
L 1638 4134 
L -19 4134 
L -19 4666 
z
" transform="scale(0.015625)"/>
      <path id="DejaVuSans-70" d="M 1159 525 
L 1159 -1331 
L 581 -1331 
L 581 3500 
L 1159 3500 
L 1159 2969 
Q 1341 3281 1617 3432 
Q 1894 3584 2278 3584 
Q 2916 3584 3314 3078 
Q 3713 2572 3713 1747 
Q 3713 922 3314 415 
Q 2916 -91 2278 -91 
Q 1894 -91 1617 61 
Q 1341 213 1159 525 
z
M 3116 1747 
Q 3116 2381 2855 2742 
Q 2594 3103 2138 3103 
Q 1681 3103 1420 2742 
Q 1159 2381 1159 1747 
Q 1159 1113 1420 752 
Q 1681 391 2138 391 
Q 2594 391 2855 752 
Q 3116 1113 3116 1747 
z
" transform="scale(0.015625)"/>
      <path id="DejaVuSans-79" d="M 2059 -325 
Q 1816 -950 1584 -1140 
Q 1353 -1331 966 -1331 
L 506 -1331 
L 506 -850 
L 844 -850 
Q 1081 -850 1212 -737 
Q 1344 -625 1503 -206 
L 1606 56 
L 191 3500 
L 800 3500 
L 1894 763 
L 2988 3500 
L 3597 3500 
L 2059 -325 
z
" transform="scale(0.015625)"/>
     </defs>
     <use xlink:href="#DejaVuSans-54"/>
     <use xlink:href="#DejaVuSans-6f" x="44.083984"/>
     <use xlink:href="#DejaVuSans-70" x="105.265625"/>
     <use xlink:href="#DejaVuSans-20" x="168.742188"/>
     <use xlink:href="#DejaVuSans-31" x="200.529297"/>
     <use xlink:href="#DejaVuSans-30" x="264.152344"/>
     <use xlink:href="#DejaVuSans-20" x="327.775391"/>
     <use xlink:href="#DejaVuSans-43" x="359.5625"/>
     <use xlink:href="#DejaVuSans-61" x="429.386719"/>
     <use xlink:href="#DejaVuSans-74" x="490.666016"/>
     <use xlink:href="#DejaVuSans-65" x="529.875"/>
     <use xlink:href="#DejaVuSans-67" x="591.398438"/>
     <use xlink:href="#DejaVuSans-6f" x="654.875"/>
     <use xlink:href="#DejaVuSans-72" x="716.056641"/>
     <use xlink:href="#DejaVuSans-69" x="757.169922"/>
     <use xlink:href="#DejaVuSans-65" x="784.953125"/>
     <use xlink:href="#DejaVuSans-73" x="846.476562"/>
     <use xlink:href="#DejaVuSans-20" x="898.576172"/>
     <use xlink:href="#DejaVuSans-62" x="930.363281"/>
     <use xlink:href="#DejaVuSans-79" x="993.839844"/>
     <use xlink:href="#DejaVuSans-20" x="1053.019531"/>
     <use xlink:href="#DejaVuSans-51" x="1084.806641"/>
     <use xlink:href="#DejaVuSans-75" x="1163.517578"/>
     <use xlink:href="#DejaVuSans-65" x="1226.896484"/>
     <use xlink:href="#DejaVuSans-73" x="1288.419922"/>
     <use xlink:href="#DejaVuSans-74" x="1340.519531"/>
     <use xlink:href="#DejaVuSans-69" x="1379.728516"/>
     <use xlink:href="#DejaVuSans-6f" x="1407.511719"/>
     <use xlink:href="#DejaVuSans-6e" x="1468.693359"/>
     <use xlink:href="#DejaVuSans-20" x="1532.072266"/>
     <use xlink:href="#DejaVuSans-43" x="1563.859375"/>
     <use xlink:href="#DejaVuSans-6f" x="1633.683594"/>
     <use xlink:href="#DejaVuSans-75" x="1694.865234"/>
     <use xlink:href="#DejaVuSans-6e" x="1758.244141"/>
     <use xlink:href="#DejaVuSans-74" x="1821.623047"/>
    </g>
   </g>
  </g>
 </g>
 <defs>
  <clipPath id="p24ebc23557">
   <rect x="122.376563" y="22.318125" width="279" height="277.2"/>
  </clipPath>
 </defs>
</svg>
